<?xml version="1.0" encoding="utf-8"?>
<!-- Generator: Adobe Illustrator 27.5.0, SVG Export Plug-In . SVG Version: 6.00 Build 0)  -->
<svg version="1.1" xmlns="http://www.w3.org/2000/svg" xmlns:xlink="http://www.w3.org/1999/xlink" x="0px" y="0px"
	 viewBox="0 0 500 500" style="enable-background:new 0 0 500 500;" xml:space="preserve">
<g id="BACKGROUND">
</g>
<g id="OBJECTS">
	<g style="opacity:0.4;">
		<path style="fill:#C5D4E8;" d="M312.819,75.936H106c-5.121,0-9.272-4.151-9.272-9.272v-1.648c0-5.121,4.151-9.272,9.272-9.272
			h206.819c5.121,0,9.272,4.151,9.272,9.272v1.648C322.091,71.785,317.94,75.936,312.819,75.936z"/>
		<path style="fill:#CEDCED;" d="M422.137,173.052H275.051c-3.669,0-6.643-2.974-6.643-6.643v-1.279
			c0-3.669,2.974-6.643,6.643-6.643h147.085c3.669,0,6.643,2.974,6.643,6.643v1.279C428.78,170.078,425.806,173.052,422.137,173.052
			z"/>
		<path style="fill:#B4C7E0;" d="M438.971,96.34h-237.69c-5.366,0-9.715,4.52-9.715,10.096v0c0,5.467,4.184,9.908,9.405,10.08
			c-0.089,0.008-0.148,0.016-0.148,0.016h0.457h0.805c1.315,0.147,3.184,0.847,3.184,3.663c0,3.456-2.732,3.932-3.846,3.983h-0.469
			H56.341c-5.365,0-9.715,4.52-9.715,10.096c0,5.576,4.35,10.096,9.715,10.096h237.69c5.365,0,9.715-4.52,9.715-10.096
			c0-5.576-4.35-10.096-9.715-10.096h-1.934c0,0-3.304,0.064-3.277-3.838c0.027-3.837,3.216-3.808,3.216-3.808h146.936
			c5.366,0,9.715-4.52,9.715-10.096v0C448.686,100.86,444.337,96.34,438.971,96.34z"/>
	</g>
	<g>
		<g>
			<g>
				<g>
					
						<line style="fill:none;stroke:#363039;stroke-width:0.3;stroke-miterlimit:10;" x1="278.348" y1="213.346" x2="278.348" y2="211.846"/>
					
						<line style="fill:none;stroke:#363039;stroke-width:0.3;stroke-miterlimit:10;stroke-dasharray:3.0518,3.0518;" x1="278.348" y1="208.794" x2="278.348" y2="76.041"/>
					<polyline style="fill:none;stroke:#363039;stroke-width:0.3;stroke-miterlimit:10;" points="278.348,74.515 278.348,73.015 
						276.848,73.015 					"/>
					
						<line style="fill:none;stroke:#363039;stroke-width:0.3;stroke-miterlimit:10;stroke-dasharray:2.8961,2.8961;" x1="273.952" y1="73.015" x2="240.648" y2="73.015"/>
					
						<line style="fill:none;stroke:#363039;stroke-width:0.3;stroke-miterlimit:10;" x1="239.2" y1="73.015" x2="237.7" y2="73.015"/>
				</g>
			</g>
			<g>
				<g>
					
						<line style="fill:none;stroke:#363039;stroke-width:0.3;stroke-miterlimit:10;" x1="137.517" y1="116.082" x2="139.017" y2="116.082"/>
					
						<line style="fill:none;stroke:#363039;stroke-width:0.3;stroke-miterlimit:10;stroke-dasharray:3.0074,3.0074;" x1="142.024" y1="116.082" x2="272.846" y2="116.082"/>
					<polyline style="fill:none;stroke:#363039;stroke-width:0.3;stroke-miterlimit:10;" points="274.35,116.082 275.85,116.082 
						275.85,117.582 					"/>
					
						<line style="fill:none;stroke:#363039;stroke-width:0.3;stroke-miterlimit:10;stroke-dasharray:3.0532,3.0532;" x1="275.85" y1="120.636" x2="275.85" y2="210.705"/>
					
						<line style="fill:none;stroke:#363039;stroke-width:0.3;stroke-miterlimit:10;" x1="275.85" y1="212.232" x2="275.85" y2="213.732"/>
				</g>
			</g>
			<g>
				<g>
					
						<line style="fill:none;stroke:#363039;stroke-width:0.3;stroke-miterlimit:10;" x1="379.822" y1="94.503" x2="378.322" y2="94.503"/>
					
						<line style="fill:none;stroke:#363039;stroke-width:0.3;stroke-miterlimit:10;stroke-dasharray:2.9557,2.9557;" x1="375.366" y1="94.503" x2="288.172" y2="94.503"/>
					<polyline style="fill:none;stroke:#363039;stroke-width:0.3;stroke-miterlimit:10;" points="286.694,94.503 285.194,94.503 
						285.194,96.003 					"/>
					
						<line style="fill:none;stroke:#363039;stroke-width:0.3;stroke-miterlimit:10;stroke-dasharray:2.9703,2.9703;" x1="285.194" y1="98.973" x2="285.194" y2="210.361"/>
					
						<line style="fill:none;stroke:#363039;stroke-width:0.3;stroke-miterlimit:10;" x1="285.194" y1="211.846" x2="285.194" y2="213.346"/>
				</g>
			</g>
			<g>
				<g>
					
						<line style="fill:none;stroke:#363039;stroke-width:0.3;stroke-miterlimit:10;" x1="320.285" y1="147.112" x2="320.285" y2="148.612"/>
					
						<line style="fill:none;stroke:#363039;stroke-width:0.3;stroke-miterlimit:10;stroke-dasharray:1.6139,1.6139;" x1="320.285" y1="150.226" x2="320.285" y2="152.647"/>
					<polyline style="fill:none;stroke:#363039;stroke-width:0.3;stroke-miterlimit:10;" points="320.285,153.454 320.285,154.954 
						318.785,154.954 					"/>
					
						<line style="fill:none;stroke:#363039;stroke-width:0.3;stroke-miterlimit:10;stroke-dasharray:3.2369,3.2369;" x1="315.548" y1="154.954" x2="291.272" y2="154.954"/>
					<polyline style="fill:none;stroke:#363039;stroke-width:0.3;stroke-miterlimit:10;" points="289.654,154.954 288.154,154.954 
						288.154,156.454 					"/>
					
						<line style="fill:none;stroke:#363039;stroke-width:0.3;stroke-miterlimit:10;stroke-dasharray:2.9115,2.9115;" x1="288.154" y1="159.365" x2="288.154" y2="210.316"/>
					
						<line style="fill:none;stroke:#363039;stroke-width:0.3;stroke-miterlimit:10;" x1="288.154" y1="211.772" x2="288.154" y2="213.272"/>
				</g>
			</g>
			<g>
				<g>
					<line style="fill:none;stroke:#363039;stroke-width:0.3;stroke-miterlimit:10;" x1="235" y1="168.77" x2="235" y2="170.27"/>
					
						<line style="fill:none;stroke:#363039;stroke-width:0.3;stroke-miterlimit:10;stroke-dasharray:3.009,3.009;" x1="235" y1="173.279" x2="235" y2="177.792"/>
					<polyline style="fill:none;stroke:#363039;stroke-width:0.3;stroke-miterlimit:10;" points="235,179.297 235,180.797 
						236.5,180.797 					"/>
					
						<line style="fill:none;stroke:#363039;stroke-width:0.3;stroke-miterlimit:10;stroke-dasharray:2.8859,2.8859;" x1="239.386" y1="180.797" x2="272.574" y2="180.797"/>
					
						<line style="fill:none;stroke:#363039;stroke-width:0.3;stroke-miterlimit:10;" x1="274.017" y1="180.797" x2="275.517" y2="180.797"/>
				</g>
			</g>
		</g>
		<g>
			<g>
				<path style="fill:#363039;" d="M127.506,129.179H90.508c-1.972,0-3.57-1.598-3.57-3.57v-15.052c0-1.972,1.598-3.57,3.57-3.57
					h36.998c1.972,0,3.57,1.598,3.57,3.57v15.052C131.076,127.58,129.477,129.179,127.506,129.179z"/>
				<path style="fill:#B4C7E0;" d="M127.506,127.179H90.508c-1.972,0-3.57-1.598-3.57-3.57v-15.052c0-1.972,1.598-3.57,3.57-3.57
					h36.998c1.972,0,3.57,1.598,3.57,3.57v15.052C131.076,125.58,129.477,127.179,127.506,127.179z"/>
				<g>
					<path d="M100.931,116.559v3.408h-1.092v-8.46h2.689c0.968,0,1.691,0.226,2.172,0.678c0.479,0.452,0.72,1.07,0.72,1.854
						c0,0.792-0.248,1.41-0.744,1.854c-0.496,0.444-1.212,0.666-2.147,0.666H100.931z M103.866,115.227
						c0.292-0.28,0.438-0.676,0.438-1.188c0-0.528-0.146-0.93-0.438-1.206c-0.292-0.276-0.771-0.414-1.435-0.414h-1.5v3.228h1.5
						C103.095,115.647,103.574,115.507,103.866,115.227z"/>
					<path d="M113.183,111.507v8.46h-1.104v-3.912h-4.296v3.912h-1.092v-8.46h1.092v3.66h4.296v-3.66H113.183z"/>
					<path d="M116.027,116.559v3.408h-1.092v-8.46h2.688c0.968,0,1.691,0.226,2.172,0.678c0.48,0.452,0.72,1.07,0.72,1.854
						c0,0.792-0.248,1.41-0.744,1.854c-0.496,0.444-1.212,0.666-2.147,0.666H116.027z M118.962,115.227
						c0.292-0.28,0.438-0.676,0.438-1.188c0-0.528-0.146-0.93-0.438-1.206c-0.292-0.276-0.771-0.414-1.435-0.414h-1.5v3.228h1.5
						C118.191,115.647,118.67,115.507,118.962,115.227z"/>
				</g>
			</g>
			<g>
				<path style="fill:#363039;" d="M228.985,86.112h-36.998c-1.972,0-3.57-1.598-3.57-3.57V67.489c0-1.972,1.598-3.57,3.57-3.57
					h36.998c1.972,0,3.57,1.598,3.57,3.57v15.052C232.555,84.513,230.956,86.112,228.985,86.112z"/>
				<path style="fill:#F8ECED;" d="M228.985,84.112h-36.998c-1.972,0-3.57-1.598-3.57-3.57V65.489c0-1.972,1.598-3.57,3.57-3.57
					h36.998c1.972,0,3.57,1.598,3.57,3.57v15.052C232.555,82.513,230.956,84.112,228.985,84.112z"/>
				<g>
					<path d="M202.92,69.233v8.46h-1.104v-3.912h-4.296v3.912h-1.092v-8.46h1.092v3.66h4.296v-3.66H202.92z"/>
					<path d="M209.855,69.233v0.888h-2.388v7.572h-1.092v-7.572h-2.388v-0.888H209.855z"/>
					<path d="M219.407,69.377v8.316h-1.092v-6.636l-2.652,6.636h-0.972l-2.664-6.612v6.612h-1.092v-8.316h1.308l2.952,6.984
						l2.904-6.984H219.407z"/>
					<path d="M222.251,76.841h3v0.852h-4.092v-8.46h1.092V76.841z"/>
				</g>
			</g>
			<g>
				<path style="fill:#363039;" d="M338.784,144.23h-36.998c-1.972,0-3.57-1.598-3.57-3.57v-15.052c0-1.972,1.598-3.57,3.57-3.57
					h36.998c1.972,0,3.57,1.598,3.57,3.57v15.052C342.354,142.632,340.756,144.23,338.784,144.23z"/>
				<path style="fill:#84504C;" d="M338.784,142.23h-36.998c-1.972,0-3.57-1.598-3.57-3.57v-15.052c0-1.972,1.598-3.57,3.57-3.57
					h36.998c1.972,0,3.57,1.598,3.57,3.57v15.052C342.354,140.632,340.756,142.23,338.784,142.23z"/>
				<g>
					<path style="fill:#FFFFFF;" d="M316.989,127.49c0.672,0.508,1.136,1.202,1.393,2.082h-1.152
						c-0.216-0.56-0.564-1.006-1.044-1.338c-0.48-0.332-1.068-0.498-1.764-0.498c-0.553,0-1.047,0.134-1.482,0.402
						c-0.436,0.268-0.78,0.652-1.032,1.152c-0.252,0.5-0.378,1.086-0.378,1.758c0,0.664,0.126,1.244,0.378,1.74
						c0.252,0.496,0.596,0.878,1.032,1.146c0.436,0.268,0.93,0.402,1.482,0.402c0.695,0,1.283-0.166,1.764-0.498
						c0.48-0.332,0.828-0.778,1.044-1.338h1.152c-0.257,0.88-0.721,1.574-1.393,2.082c-0.672,0.508-1.523,0.762-2.556,0.762
						c-0.792,0-1.492-0.182-2.1-0.546c-0.608-0.364-1.082-0.872-1.422-1.524c-0.34-0.652-0.51-1.394-0.51-2.226
						c0-0.84,0.17-1.588,0.51-2.244c0.34-0.656,0.814-1.166,1.422-1.53c0.608-0.364,1.309-0.546,2.1-0.546
						C315.465,126.728,316.317,126.982,316.989,127.49z"/>
					<path style="fill:#FFFFFF;" d="M325.485,131.384h-2.531v2.556h-1.068v-2.556h-2.519v-0.996h2.519v-2.568h1.068v2.568h2.531
						V131.384z"/>
					<path style="fill:#FFFFFF;" d="M332.396,131.384h-2.531v2.556h-1.068v-2.556h-2.519v-0.996h2.519v-2.568h1.068v2.568h2.531
						V131.384z"/>
				</g>
			</g>
			<g>
				<path style="fill:#363039;" d="M426.104,105.599h-36.998c-1.972,0-3.57-1.598-3.57-3.57V86.977c0-1.972,1.598-3.57,3.57-3.57
					h36.998c1.972,0,3.57,1.598,3.57,3.57v15.052C429.674,104.001,428.076,105.599,426.104,105.599z"/>
				<path style="fill:#D9B487;" d="M426.104,103.599h-36.998c-1.972,0-3.57-1.598-3.57-3.57V84.977c0-1.972,1.598-3.57,3.57-3.57
					h36.998c1.972,0,3.57,1.598,3.57,3.57v15.052C429.674,102.001,428.076,103.599,426.104,103.599z"/>
				<g>
					<path d="M403.176,89.513c0.672,0.508,1.136,1.202,1.393,2.082h-1.152c-0.216-0.559-0.564-1.006-1.044-1.338
						c-0.48-0.332-1.068-0.498-1.764-0.498c-0.553,0-1.047,0.134-1.482,0.402c-0.436,0.268-0.78,0.652-1.032,1.152
						c-0.252,0.5-0.378,1.086-0.378,1.758c0,0.664,0.126,1.244,0.378,1.74c0.252,0.496,0.596,0.878,1.032,1.146
						c0.436,0.268,0.93,0.402,1.482,0.402c0.695,0,1.283-0.166,1.764-0.498c0.48-0.332,0.828-0.778,1.044-1.338h1.152
						c-0.257,0.88-0.721,1.574-1.393,2.082c-0.672,0.508-1.523,0.762-2.556,0.762c-0.792,0-1.492-0.182-2.1-0.546
						c-0.608-0.364-1.082-0.872-1.422-1.524c-0.34-0.652-0.51-1.394-0.51-2.226c0-0.84,0.17-1.588,0.51-2.244
						c0.34-0.656,0.814-1.166,1.422-1.53c0.608-0.364,1.309-0.546,2.1-0.546C401.653,88.752,402.504,89.006,403.176,89.513z"/>
					<path d="M411.097,96.216c-0.192,0.344-0.484,0.624-0.876,0.84c-0.392,0.216-0.876,0.324-1.452,0.324
						c-0.561,0-1.059-0.102-1.494-0.306c-0.436-0.204-0.784-0.484-1.044-0.84c-0.261-0.356-0.41-0.762-0.45-1.218h1.164
						c0.023,0.24,0.105,0.474,0.246,0.702c0.14,0.228,0.34,0.416,0.6,0.564c0.26,0.148,0.574,0.222,0.942,0.222
						c0.479,0,0.848-0.128,1.104-0.384c0.256-0.256,0.385-0.584,0.385-0.984c0-0.344-0.091-0.624-0.271-0.84
						c-0.18-0.216-0.402-0.386-0.666-0.51c-0.264-0.124-0.624-0.258-1.08-0.402c-0.536-0.176-0.966-0.342-1.29-0.498
						c-0.324-0.156-0.6-0.39-0.828-0.702c-0.228-0.312-0.342-0.724-0.342-1.236c0-0.44,0.106-0.828,0.318-1.164
						c0.212-0.336,0.516-0.596,0.912-0.78c0.396-0.184,0.861-0.276,1.397-0.276c0.832,0,1.492,0.202,1.98,0.606
						c0.487,0.404,0.771,0.918,0.852,1.542h-1.176c-0.064-0.336-0.236-0.632-0.516-0.888c-0.28-0.256-0.66-0.384-1.141-0.384
						c-0.439,0-0.792,0.114-1.056,0.342c-0.264,0.228-0.396,0.55-0.396,0.966c0,0.328,0.086,0.594,0.259,0.798
						c0.172,0.204,0.386,0.364,0.642,0.48c0.256,0.116,0.607,0.246,1.056,0.39c0.544,0.176,0.982,0.344,1.315,0.504
						c0.332,0.16,0.613,0.402,0.846,0.726c0.232,0.324,0.348,0.754,0.348,1.29C411.384,95.5,411.289,95.872,411.097,96.216z"/>
					<path d="M417.913,96.216c-0.192,0.344-0.484,0.624-0.876,0.84c-0.393,0.216-0.876,0.324-1.452,0.324
						c-0.561,0-1.059-0.102-1.494-0.306c-0.437-0.204-0.784-0.484-1.044-0.84c-0.261-0.356-0.41-0.762-0.45-1.218h1.164
						c0.023,0.24,0.105,0.474,0.246,0.702c0.14,0.228,0.34,0.416,0.6,0.564c0.26,0.148,0.574,0.222,0.942,0.222
						c0.48,0,0.848-0.128,1.104-0.384c0.256-0.256,0.385-0.584,0.385-0.984c0-0.344-0.091-0.624-0.27-0.84
						c-0.18-0.216-0.402-0.386-0.666-0.51c-0.264-0.124-0.624-0.258-1.08-0.402c-0.536-0.176-0.966-0.342-1.29-0.498
						c-0.324-0.156-0.6-0.39-0.828-0.702c-0.228-0.312-0.342-0.724-0.342-1.236c0-0.44,0.106-0.828,0.318-1.164
						c0.212-0.336,0.516-0.596,0.912-0.78c0.396-0.184,0.861-0.276,1.397-0.276c0.832,0,1.492,0.202,1.98,0.606
						c0.487,0.404,0.772,0.918,0.852,1.542h-1.176c-0.065-0.336-0.236-0.632-0.516-0.888c-0.28-0.256-0.66-0.384-1.141-0.384
						c-0.439,0-0.792,0.114-1.056,0.342c-0.264,0.228-0.396,0.55-0.396,0.966c0,0.328,0.086,0.594,0.259,0.798
						c0.172,0.204,0.386,0.364,0.642,0.48c0.256,0.116,0.607,0.246,1.056,0.39c0.544,0.176,0.983,0.344,1.315,0.504
						c0.332,0.16,0.613,0.402,0.846,0.726c0.232,0.324,0.348,0.754,0.348,1.29C418.2,95.5,418.104,95.872,417.913,96.216z"/>
				</g>
			</g>
			<g>
				<path style="fill:#363039;" d="M253.499,164.129h-36.998c-1.972,0-3.57-1.598-3.57-3.57v-15.052c0-1.972,1.598-3.57,3.57-3.57
					h36.998c1.972,0,3.57,1.598,3.57,3.57v15.052C257.069,162.531,255.471,164.129,253.499,164.129z"/>
				<path style="fill:#6C8585;" d="M253.499,162.129h-36.998c-1.972,0-3.57-1.598-3.57-3.57v-15.052c0-1.972,1.598-3.57,3.57-3.57
					h36.998c1.972,0,3.57,1.598,3.57,3.57v15.052C257.069,160.531,255.471,162.129,253.499,162.129z"/>
				<g>
					<path style="fill:#FFFFFF;" d="M232.971,146.985v6.288c0,0.696-0.198,1.246-0.594,1.65c-0.396,0.404-0.95,0.606-1.662,0.606
						c-0.769,0-1.37-0.226-1.807-0.678c-0.436-0.452-0.653-1.086-0.653-1.902h1.092c0,0.488,0.107,0.874,0.324,1.158
						c0.216,0.284,0.548,0.426,0.996,0.426c0.424,0,0.732-0.12,0.924-0.36c0.191-0.24,0.288-0.54,0.288-0.9v-6.288H232.971z"/>
					<path style="fill:#FFFFFF;" d="M238.521,149.355c0.451,0.388,0.726,0.91,0.821,1.566h-1.044
						c-0.048-0.392-0.21-0.714-0.485-0.966c-0.276-0.252-0.646-0.378-1.11-0.378c-0.392,0-0.698,0.094-0.918,0.282
						c-0.22,0.188-0.33,0.442-0.33,0.762c0,0.24,0.074,0.434,0.222,0.582c0.148,0.148,0.332,0.26,0.553,0.337
						c0.22,0.076,0.521,0.158,0.905,0.246c0.488,0.112,0.883,0.226,1.183,0.342c0.3,0.116,0.556,0.302,0.768,0.558
						c0.212,0.256,0.318,0.6,0.318,1.032c0,0.536-0.202,0.972-0.607,1.308c-0.404,0.336-0.941,0.504-1.613,0.504
						c-0.784,0-1.425-0.188-1.921-0.564c-0.496-0.376-0.788-0.9-0.876-1.572h1.057c0.04,0.4,0.214,0.724,0.521,0.972
						c0.309,0.248,0.714,0.372,1.219,0.372c0.375,0,0.67-0.096,0.882-0.288c0.212-0.192,0.317-0.444,0.317-0.756
						c0-0.256-0.076-0.46-0.228-0.612c-0.152-0.152-0.34-0.268-0.564-0.348c-0.224-0.08-0.532-0.164-0.924-0.252
						c-0.488-0.112-0.878-0.224-1.17-0.336c-0.292-0.112-0.54-0.29-0.744-0.534c-0.204-0.244-0.306-0.574-0.306-0.99
						c0-0.552,0.204-0.997,0.612-1.338c0.407-0.34,0.964-0.51,1.668-0.51C237.47,148.773,238.069,148.967,238.521,149.355z"/>
				</g>
			</g>
		</g>
	</g>
	<g>
		<g>
			<path style="fill:#7B95BA;" d="M253.975,120.771c-0.75,0-1.493-0.314-2.02-0.927l-11.698-13.615
				c-0.958-1.115-0.83-2.794,0.284-3.752c1.117-0.957,2.796-0.829,3.752,0.284l11.698,13.615c0.958,1.115,0.83,2.794-0.284,3.752
				C255.205,120.56,254.588,120.771,253.975,120.771z"/>
			<path style="fill:#7B95BA;" d="M239.527,119.472l5.705-11.536l12.264-3.902c0.66-0.21,0.73-1.117,0.11-1.426l-27.977-13.924
				c-0.611-0.304-1.287,0.277-1.078,0.927l9.551,29.756C238.312,120.026,239.219,120.094,239.527,119.472z"/>
		</g>
		
			<path style="fill:#F8ECED;stroke:#363039;stroke-width:0.8869;stroke-linecap:round;stroke-linejoin:round;stroke-miterlimit:10;" d="
			M249.299,102.597l11.324-3.603l-31.319-15.588l10.692,33.31l5.267-10.651l8.005,9.316c0.527,0.612,1.27,0.927,2.02,0.927
			c0.613,0,1.23-0.211,1.732-0.643c1.114-0.958,1.242-2.637,0.284-3.752L249.299,102.597z"/>
	</g>
	<g>
		<g>
			<path style="fill:#363039;" d="M148.047,417.063h-1.099c-0.724,0-1.312-0.587-1.312-1.312V321.13
				c0-0.724,0.587-1.312,1.312-1.312h1.099c0.724,0,1.312,0.587,1.312,1.312v94.621
				C149.358,416.475,148.771,417.063,148.047,417.063z"/>
			<polygon style="fill:#363039;" points="186.491,426.226 145.53,416.499 146.054,414.508 187.015,424.235 			"/>
			<polygon style="fill:#363039;" points="108.395,426.287 149.355,416.56 148.8,414.447 107.839,424.174 			"/>
			<ellipse style="fill:#6F5E68;" cx="184.866" cy="432.074" rx="8.677" ry="8.246"/>
			<ellipse style="fill:#6F5E68;" cx="109.96" cy="432.074" rx="8.677" ry="8.246"/>
		</g>
		<g>
			<path style="fill:#F5DEBF;" d="M99.667,234.779c-2.046,46.917,4.964,87.034,27.014,107.676c0,0,89.01,13.577,84.425,0.787
				c-5.781-16.123-24.729-16.478-31.729-26.076c-7-9.597-5.192-60.428-14.777-74.07c-3.019-4.297-3.255-6.13-6.739-6.302
				L99.667,234.779z"/>
			<path style="fill:#D9B487;" d="M133.085,350.59c14.804,5.577,72.898,1.042,72.898,1.042c3.088,0.154,5.716-2.224,5.87-5.311l0,0
				c0.154-3.088-2.224-5.716-5.311-5.87l-61.479,0.745c-7.522-3.582-39.503-16.103-42.152-75.049l0.042-27.425l0,0l0,0
				c1.412-8.683-11.354-1.586-11.174,4.355l-0.172,22.506C91.034,318.733,118.281,345.013,133.085,350.59z"/>
		</g>
	</g>
	<g>
		<g>
			<g>
				<g>
					
						<path style="fill:none;stroke:#84504C;stroke-width:14.8047;stroke-linecap:round;stroke-linejoin:round;stroke-miterlimit:10;" d="
						M177.602,324.005c54.791,20.574,63.213,46.664,53.485,102.654"/>
					<path style="fill:#363039;" d="M236.018,428.728l-12.277-1.795c-0.817-0.125-1.604,0.328-1.892,1.065
						c-1.887,4.831-1.836,8.508-1.835,10.285c0.001,1,0.887,1.797,1.94,1.788c0,0,28.45,2.013,31.94-1.871
						C257.433,434.264,236.018,428.728,236.018,428.728z"/>
					<g>
						
							<line style="fill:none;stroke:#F8ECED;stroke-width:1.2566;stroke-linecap:round;stroke-linejoin:round;stroke-miterlimit:10;" x1="242.965" y1="431.963" x2="241.066" y2="433.97"/>
						
							<line style="fill:none;stroke:#F8ECED;stroke-width:1.2566;stroke-linecap:round;stroke-linejoin:round;stroke-miterlimit:10;" x1="240.725" y1="430.877" x2="238.825" y2="432.884"/>
						<path style="fill:#F8ECED;" d="M246.283,431.988c4.911,1.876,9.38,4.244,7.611,6.213c-1.046,1.163-4.331,1.798-8.419,2.115
							C244.352,437.262,244.621,434.486,246.283,431.988z"/>
					</g>
				</g>
				<g>
					
						<path style="fill:none;stroke:#84504C;stroke-width:14.8047;stroke-linecap:round;stroke-linejoin:round;stroke-miterlimit:10;" d="
						M149.075,324.005c52.037,24.177,31.25,72.898,20.746,105.062"/>
					<path style="fill:#363039;" d="M176.558,428.587l-12.259-1.905c-0.816-0.133-1.607,0.314-1.903,1.048
						c-1.934,4.814-1.921,8.492-1.937,10.268c-0.009,1,0.869,1.805,1.922,1.805c0,0,28.428,2.269,31.958-1.584
						C197.917,434.315,176.558,428.587,176.558,428.587z"/>
					<g>
						<path style="fill:#F8ECED;" d="M186.83,431.879c4.878,1.953,9.305,4.391,7.502,6.331c-1.066,1.147-4.361,1.729-8.455,1.983
							C184.807,437.121,185.125,434.35,186.83,431.879z"/>
						
							<line style="fill:none;stroke:#F8ECED;stroke-width:1.2566;stroke-linecap:round;stroke-linejoin:round;stroke-miterlimit:10;" x1="183.513" y1="431.801" x2="181.579" y2="433.778"/>
						
							<line style="fill:none;stroke:#F8ECED;stroke-width:1.2566;stroke-linecap:round;stroke-linejoin:round;stroke-miterlimit:10;" x1="181.292" y1="430.68" x2="179.358" y2="432.657"/>
					</g>
				</g>
			</g>
		</g>
		<g>
			
				<path style="fill:none;stroke:#84504C;stroke-width:11.5519;stroke-linecap:round;stroke-linejoin:round;stroke-miterlimit:10;" d="
				M185.493,233.635c14.229,5.005-22.185,53.159,41.745,51.301"/>
			<g>
				<path style="fill:#84504C;" d="M162.533,226.448L162.533,226.448c-4.008,0-7.288-3.28-7.288-7.288v-15.758
					c0-4.008,3.279-7.288,7.288-7.288l0,0c4.008,0,7.288,3.279,7.288,7.288v15.758C169.821,223.168,166.541,226.448,162.533,226.448
					z"/>
				<path style="fill:#363039;" d="M155.245,199.525h14.576v15.768c0,0-4.617,1.574-14.576-5.477V199.525z"/>
			</g>
			<path style="fill:#84504C;" d="M194.962,246.609c1.238-19.412-11.986-27.387-30.899-27.387h-1.262h-0.536h-1.262
				c-18.913,0-33.075,8.703-31.836,28.115c0.738,11.568,7.399,15.782,11.64,33.344c2.718,11.256-3.214,25.704-3.45,32.909
				c-0.363,11.026,4.819,23.34,23.732,23.34h1.262h0.536h1.262c18.913,0,24.094-12.314,23.732-23.34
				c-0.237-7.205-6.168-21.653-3.45-32.909C188.67,263.119,194.224,258.177,194.962,246.609z"/>
			<g>
				<g>
					<path style="fill:#7B95BA;" d="M184.995,339.88c14.243,8.233,22.914,17.303,31.839,31.123c0.387,0.6,0.814,1.242,1.482,1.494
						c0.686,0.258,1.45,0.039,2.149-0.181c7.093-2.232,12.808-4.036,19.895-6.287l0.775-0.746
						c-3.475-13.201-14.853-22.045-25.684-30.353c-1.918-1.472-3.846-2.949-5.963-4.117c-2.334-1.288-7.546-3.923-10.274-5.222
						c-5.29-2.518-4.803-3.131-11.3-6.05l-0.188-7.628c-4.035,0.798-8.867,7.26-12.98,7.251c-4.475-0.009-8.923-0.978-13.393-0.78
						c-7.414,0.328-15.189,3.779-21.938,0.692l0.82-0.298c-2.382,3.149-3.042,7.685-1.139,11.144
						c1.614,2.934,4.687,4.701,7.544,6.446c9.203,5.619,18.02,12.984,21.775,23.092c2.676,7.203,2.524,15.083,2.187,22.782
						c-0.029,0.663,0.587,1.166,1.23,1.006l24.264-6.039c0.591-0.147,1.23-0.325,1.593-0.814c0.389-0.525,0.342-1.243,0.267-1.892
						c-1.546-13.414-5.03-26.683-14.092-36.693"/>
				</g>
				<path style="fill:#B4C7E0;" d="M198.787,381.777l-27.602,2.853c-0.723,0.075-1.369-0.451-1.444-1.173l-0.534-5.163
					c-0.075-0.723,0.451-1.369,1.173-1.444l27.602-2.853c0.723-0.075,1.369,0.451,1.444,1.174l0.534,5.163
					C200.035,381.056,199.51,381.703,198.787,381.777z"/>
				<path style="fill:#B4C7E0;" d="M243.501,370.498l-24.844,7.623c-0.674,0.207-1.388-0.172-1.594-0.845l-1.546-5.039
					c-0.207-0.674,0.172-1.387,0.846-1.594l24.844-7.623c0.674-0.207,1.388,0.172,1.594,0.846l1.546,5.038
					C244.553,369.577,244.174,370.291,243.501,370.498z"/>
			</g>
			<g>
				<path style="fill:#DD6A5B;" d="M189.105,309.62c-4.834-6.288-1.018-29.708,1.574-49.336l-0.07-0.452
					c4.782-2.857,8.025-5.091,12.116-8.872c-0.575-2.412-6.09-13.377-10.813-19.982c-4.723-6.605-11.018-11.329-19.811-12.055
					l-0.667,0.298c0.212,2.098-0.075,3.175-1.207,4.293c-1.501,1.482-3.381,2.458-5.486,2.587c-2.139,0.132-6.546-1.129-8.524-1.952
					c-1.978-0.823-3.396-2.165-3.882-4.251l-0.531-0.27l-0.643-0.095c-20.4,2.512-24.593,12.797-24.965,26.525
					c-0.105,3.885,1.307,10.95,1.825,14.802c1.814,13.488,2.459,27.102,3.102,40.697c0.256,5.404,0.511,10.807,0.767,16.211
					c0.096,2.036,0.254,4.235,1.574,5.788c1.855,2.182,5.171,2.197,8.018,1.896c16.792-1.778,46.68-4.444,51.593-5.201
					C193.074,320.251,195.751,318.267,189.105,309.62z"/>
			</g>
			<g>
				<g>
					<g>
						<path style="fill:#D9B487;" d="M131.361,262.525c3.797,0.919,7.649,1.594,11.514,2.152c3.904,0.563,7.836,0.774,11.772,0.975
							c4.139,0.212,8.281,0.362,12.424,0.449c3.672,0.078,7.347,0.079,11.011-0.217c4.057-0.328,8.108-1.003,11.953-2.371
							c0.151-0.053,0.086-0.295-0.066-0.241c-6.906,2.457-14.395,2.732-21.654,2.604c-3.978-0.07-7.954-0.201-11.928-0.388
							c-4.076-0.191-8.191-0.326-12.237-0.881c-4.271-0.586-8.53-1.308-12.721-2.322
							C131.271,262.246,131.204,262.487,131.361,262.525L131.361,262.525z"/>
					</g>
				</g>
				<g>
					<g>
						<path style="fill:#D9B487;" d="M131.042,264.637c2.993,0.943,6.096,1.546,9.183,2.089c3.632,0.639,7.286,1.152,10.948,1.579
							c4.169,0.486,8.361,0.913,12.559,1.039c4.214,0.126,8.426-0.181,12.609-0.676c4.428-0.524,8.807-1.361,13.115-2.51
							c0.155-0.041,0.089-0.283-0.066-0.241c-3.887,1.036-7.832,1.826-11.82,2.348c-4.048,0.53-8.152,0.894-12.237,0.86
							c-4.209-0.036-8.408-0.437-12.589-0.893c-3.753-0.409-7.498-0.912-11.222-1.536c-3.498-0.586-7.024-1.234-10.413-2.301
							C130.955,264.347,130.889,264.589,131.042,264.637L131.042,264.637z"/>
					</g>
				</g>
				<g>
					<g>
						<path style="fill:#D9B487;" d="M188.374,274.703c-13.788,2.379-27.818,3.401-41.694,1.122
							c-3.986-0.655-7.927-1.559-11.81-2.671c-0.155-0.044-0.221,0.197-0.066,0.241c6.812,1.95,13.802,3.231,20.872,3.736
							c6.918,0.493,13.869,0.251,20.761-0.481c4.02-0.427,8.02-1.018,12.003-1.705C188.599,274.917,188.532,274.676,188.374,274.703
							L188.374,274.703z"/>
					</g>
				</g>
				<g>
					<g>
						<path style="fill:#D9B487;" d="M141.486,254.12c6.354,1.041,12.793,1.511,19.225,1.695c3.221,0.092,6.444,0.103,9.666,0.081
							c3.045-0.021,6.094-0.098,9.123-0.427c3.449-0.376,6.86-1.091,10.089-2.381c0.148-0.059,0.083-0.301-0.066-0.241
							c-5.73,2.29-11.936,2.714-18.045,2.789c-6.396,0.078-12.801-0.017-19.181-0.501c-3.597-0.273-7.185-0.672-10.745-1.255
							C141.395,253.853,141.327,254.094,141.486,254.12L141.486,254.12z"/>
					</g>
				</g>
			</g>
			
				<path style="fill:none;stroke:#84504C;stroke-width:11.5519;stroke-linecap:round;stroke-linejoin:round;stroke-miterlimit:10;" d="
				M137.77,233.635c0,0-51.635,64.865,52.231,51.301"/>
			<g>
				<path style="fill:#DD6A5B;" d="M139.173,223.122c-3.697,1.262-7.178,3.815-11.054,9.294c-3.465,4.897-6.032,10.062-8.839,15.364
					c-0.488,0.921-2.41,3.916-2.052,4.895c0.403,1.104,4.651,2.582,6.683,3.449c2.864,1.223,5.878,3.233,9.189,3.581
					c0.774,0.081,1.578,0.139,2.309-0.127c0.811-0.296,2.581-2.323,3.144-2.977c4.754-5.527,6.643-12.846,7.528-20.082
					c0.142-1.158,0.228-2.341-0.001-3.486c-0.357-1.783-1.443-3.323-2.535-4.778c-1.139-1.518-1.994-3.041-3.885-3.209"/>
			</g>
		</g>
		<path style="fill:#84504C;" d="M233.284,275.961c-3.171-0.414-8.971,0.486-9.376,4.37c-0.031,0.295,0.082,0.57,0.258,0.804
			c-0.407,1.311,0.812,2.842,2.473,2.584c1.555-0.242,3.009-1.22,4.629-1.105c1.116,0.078,2.094,0.762,2.91,1.493
			c0.796,0.713,2.226,0.259,2.197-0.91c-0.033-1.319-0.531-2.302-1.306-3.011c0.357,0.107,0.704,0.236,1.028,0.394
			c0.952,0.463,1.567,1.244,2.574,1.607c0.321,0.116,0.77-0.132,0.831-0.472C240.064,278.539,235.921,276.305,233.284,275.961z"/>
		<g>
			<path style="fill:#7B95BA;" d="M176.136,194.96c-1.389,4.328-0.064,8.624,2.96,9.594c3.024,0.971,6.602-1.751,7.991-6.079
				c1.389-4.328,0.064-8.623-2.96-9.594C181.103,187.91,177.525,190.632,176.136,194.96z"/>
			<path style="fill:#363039;" d="M173.63,194.156c-1.573,4.901-0.072,9.765,3.352,10.865c3.424,1.099,7.476-1.982,9.049-6.883
				c1.573-4.901,0.073-9.765-3.352-10.865C179.255,186.173,175.204,189.255,173.63,194.156z"/>
		</g>
		<g>
			<g>
				<path style="display:none;fill:#84504C;" d="M186.98,196.529c0.223,3.07-2.02,5.745-5.01,5.974
					c-2.99,0.229-5.594-2.075-5.817-5.145c-0.223-3.07,2.02-5.745,5.01-5.973C184.152,191.156,186.757,193.459,186.98,196.529z"/>
				<path style="fill:#84504C;" d="M150.926,193.986c0.223,3.07-2.02,5.745-5.01,5.973c-2.99,0.229-5.594-2.075-5.817-5.145
					c-0.223-3.07,2.02-5.745,5.01-5.973C148.099,188.612,150.703,190.916,150.926,193.986z"/>
				<path style="fill:#84504C;" d="M164.894,209.754l-5.109-0.466c-9.159-0.836-15.928-9.886-15.114-19.29l1.724-19.904
					c0.814-9.405,8.974-16.415,18.133-15.579l5.109,0.467c9.159,0.836,15.986,9.215,15.172,18.62l-1.724,19.904
					C182.271,202.909,174.053,210.59,164.894,209.754z"/>
				<g>
					<g>
						<path style="fill:#363039;" d="M143.099,192.984c1.308,1.344,2.051,2.907,2.164,4.787c0.02,0.33,0.511,0.429,0.598,0.081
							c0.506-2.023-0.646-4.39-2.72-4.941C143.099,192.9,143.068,192.953,143.099,192.984L143.099,192.984z"/>
					</g>
				</g>
			</g>
			<g>
				<path style="fill:#363039;" d="M173.879,186.08c-0.106,0.968,0.532,1.835,1.425,1.938c0.893,0.103,1.702-0.598,1.808-1.566
					c0.105-0.968-0.532-1.836-1.425-1.938C174.794,184.411,173.984,185.113,173.879,186.08z"/>
				<path style="fill:#363039;" d="M158.16,185.149c-0.106,0.968,0.532,1.836,1.425,1.938c0.893,0.103,1.702-0.598,1.808-1.566
					c0.106-0.968-0.532-1.836-1.425-1.938C159.076,183.48,158.266,184.181,158.16,185.149z"/>
				
					<path style="fill:none;stroke:#363039;stroke-width:0.6903;stroke-linecap:round;stroke-linejoin:round;stroke-miterlimit:10;" d="
					M163.309,193.438c0.875,2.259,1.761,2.183,2.6,2.418c0.746,0.209,2.107-0.271,3.06-2.234"/>
				<g style="display:none;">
					<path style="display:inline;fill:#DD6A5B;" d="M198.814,195.456c1.263-0.524,3.264-0.283,4.003,0.039
						c0.937,0.408,2.313,0.979,2.057,2.653c-0.213,1.392-1.452,1.447-2.19,1.201c-2.062-0.688-2.322-0.232-3.8-0.355
						c-1.109-0.092-1.737-0.786-1.652-1.909C197.302,196.154,198.235,195.696,198.814,195.456z"/>
					<path style="display:inline;fill:#DD6A5B;" d="M204.108,196.156c0,0-2.321-1.829-5.639-0.619c0,0,0.444,1.6,2.582,1.839
						C203.189,197.617,204.108,196.156,204.108,196.156z"/>
				</g>
				
					<path style="fill:none;stroke:#363039;stroke-width:1.5654;stroke-linecap:round;stroke-linejoin:round;stroke-miterlimit:10;" d="
					M157.43,178.471c0,0,1.057-0.284,2.347-0.193c1.29,0.091,2.347,0.499,2.347,0.499"/>
				
					<path style="fill:none;stroke:#363039;stroke-width:1.5654;stroke-linecap:round;stroke-linejoin:round;stroke-miterlimit:10;" d="
					M173.867,180.147c0,0,1.05-0.248,2.33-0.062c1.28,0.186,2.33,0.712,2.33,0.712"/>
				
					<path style="fill:none;stroke:#363039;stroke-width:0.6903;stroke-linecap:round;stroke-linejoin:round;stroke-miterlimit:10;" d="
					M169.645,181.764c0.975,5.817,0.317,8.895-1.794,8.393"/>
			</g>
		</g>
		<g>
			<path style="fill:#363039;" d="M150.044,159.9c0.068-0.916-0.033-0.517-0.41-1.354c-0.286-0.634-0.72-1.236-1.349-1.532
				c-0.629-0.296-1.476-0.198-1.892,0.359c-0.267,0.357-0.32,0.834-0.274,1.278c0.135,1.311,1.118,2.495,2.381,2.869
				c-1.122,0.252-2.327-0.336-3.004-1.266c-0.239-0.328-0.426-0.699-0.716-0.983s-0.728-0.472-1.105-0.322
				c-0.476,0.189-1.241,1.016-1.427,1.493c-1.331,3.398,1.099,5.656,3.353,6.42c0,0-2.49,1.535-2.85,3.548
				c-0.343,1.919-0.55,4.332-0.484,5.857c0.097,2.25,0.242,2.896,0.339,5.615c0.089,2.492,0.821,4.899,2.465,6.773l-0.196,0.021
				c0.393,0.446,0.809,0.909,1.366,1.117c0.557,0.208,1.294,0.063,1.556-0.47c0.158-0.323,0.113-0.703,0.073-1.06
				c-0.594-5.362,1.007-10.697,2.589-15.855c0.39-1.271,0.793-2.568,1.573-3.645c1.636-2.256,4.553-3.097,7.251-3.794
				c1.649-0.426,3.32-0.855,5.023-0.846c2.08,0.01,4.096,0.671,6.071,1.325c2.234,0.74,4.496,1.493,6.465,2.781
				c1.802,1.179,3.34,2.795,5.327,3.627c3.469,1.452,7.915-0.113,9.709-3.418c0.484-0.892,0.792-1.931,0.583-2.925
				c-0.21-0.993-1.045-1.896-2.06-1.938c-0.806-0.033-1.545,0.45-2.346,0.546c-0.801,0.096-1.389-0.021-1.06-0.757
				c0.106-0.237,0.324-0.4,0.53-0.559c1.5-1.161,2.88-2.942,3.744-4.63c0.73-1.426,0.445-3.81-0.945-4.607
				c-0.94-0.539-2.155-0.127-3.024,0.52s-1.794,1.081-2.744,1.602c-2.437,1.337-4.724,0-8.357,0.327
				c-2.237,0.201,0-1.816-5.82-2.921c-6.272-1.191-13.012,0.829-17.902,4.934c-2.426,2.036-1.883,0.998-2.717,2.099"/>
		</g>
		<g>
			<path style="fill:#7B95BA;" d="M144.078,184.508c-0.21-4.189,0.193-8.472,1.404-12.621c1.21-4.13,3.417-8.138,6.666-11.181
				c3.227-3.058,7.407-5.009,11.635-5.63c4.235-0.649,8.466-0.246,12.427,0.841l-0.024,0.202c-4.098,0.24-8.083,0.592-11.78,1.709
				c-3.682,1.104-7.029,2.931-9.569,5.601c-2.552,2.648-4.344,6.004-5.421,9.645c-1.112,3.637-1.596,7.509-1.812,11.428
				L144.078,184.508z"/>
		</g>
		<g>
			<path style="fill:#363039;" d="M151.477,193.477c-0.469,5.126-3.753,9.016-7.334,8.688c-3.582-0.328-6.105-4.749-5.636-9.875
				c0.469-5.126,3.753-9.016,7.334-8.688C149.423,183.93,151.946,188.351,151.477,193.477z"/>
			<path style="fill:#7B95BA;" d="M148.856,193.237c-0.414,4.527-3.314,7.962-6.477,7.672c-3.163-0.289-5.391-4.193-4.977-8.72
				c0.414-4.527,3.314-7.962,6.477-7.672C147.042,184.807,149.271,188.711,148.856,193.237z"/>
			<path style="fill:#F8ECED;" d="M145.246,192.907c-0.264,2.884-2.112,5.073-4.127,4.889c-2.015-0.184-3.435-2.672-3.171-5.556
				c0.264-2.884,2.112-5.073,4.127-4.889C144.09,187.535,145.51,190.023,145.246,192.907z"/>
			<path style="fill:#7B95BA;" d="M145.276,192.116c-0.238,2.6-2.021,4.572-3.837,4.406s-3.097-2.409-2.859-5.008
				s0.948-4.526,3.72-4.407C144.855,187.216,145.514,189.516,145.276,192.116z"/>
		</g>
	</g>
	<g>
		<g>
			
				<line style="fill:none;stroke:#363039;stroke-width:1.6903;stroke-miterlimit:10;" x1="170.086" y1="299.292" x2="132.435" y2="440.193"/>
			
				<line style="fill:none;stroke:#363039;stroke-width:1.6903;stroke-miterlimit:10;" x1="329.769" y1="299.292" x2="367.419" y2="440.193"/>
		</g>
		<path style="fill:#6F5E68;" d="M402.419,299.292H95.498c-0.687,0-1.244-0.557-1.244-1.244v-8.021c0-0.687,0.557-1.244,1.244-1.244
			h306.92c0.687,0,1.244,0.557,1.244,1.244v8.021C403.663,298.735,403.106,299.292,402.419,299.292z"/>
	</g>
	<path style="fill:#7B95BA;" d="M178.302,288.713h66.781c0.889,0,1.609-0.72,1.609-1.609v-0.261c0-0.888-0.72-1.609-1.609-1.609
		h-66.781c-0.888,0-1.609,0.72-1.609,1.609v0.261C176.694,287.993,177.414,288.713,178.302,288.713z"/>
	<g>
		<g>
			<path style="fill:#7B95BA;" d="M226.231,270.208l0.469,0.36c0.878,0.673,1.963,1.022,3.069,0.986l92.135-2.988l9.881-54.975
				c0.338-1.881-0.402-3.794-1.919-4.957l-0.415-0.318c-0.703-0.539-1.565-0.832-2.452-0.832h-93.128
				c-1.887,0-3.471,1.424-3.669,3.301l-5.829,55.097C224.198,267.55,224.901,269.188,226.231,270.208z"/>
			<path style="fill:#90A6C5;" d="M232.571,271.61h89.65c2.077,0,3.819-1.567,4.038-3.633l5.603-52.962
				c0.254-2.398-1.626-4.487-4.038-4.487h-89.65c-2.077,0-3.819,1.567-4.037,3.633l-5.603,52.962
				C228.28,269.521,230.16,271.61,232.571,271.61z"/>
		</g>
		<g>
			<polygon style="fill:#7B95BA;" points="270.842,286.137 292.458,286.137 288.691,249.43 270.842,249.43 			"/>
			<polygon style="fill:#90A6C5;" points="274.608,286.137 294.827,286.137 291.061,249.43 270.842,249.43 			"/>
		</g>
		<path style="fill:#7B95BA;" d="M260.708,288.713h44.253c0.727,0,1.316-0.589,1.316-1.316v-0.845c0-0.727-0.589-1.317-1.316-1.317
			h-44.253c-0.727,0-1.316,0.59-1.316,1.317v0.845C259.392,288.124,259.981,288.713,260.708,288.713z"/>
		<path style="fill:#F8ECED;" d="M278.286,233.166c0,2.512,2.036,4.549,4.549,4.549c2.512,0,4.549-2.036,4.549-4.549
			s-2.036-4.549-4.549-4.549C280.323,228.618,278.286,230.654,278.286,233.166z"/>
		
			<polyline style="fill:none;stroke:#222221;stroke-width:0.3898;stroke-linecap:round;stroke-linejoin:round;stroke-miterlimit:10;" points="
			270.842,249.43 291.061,249.43 293.331,271.557 		"/>
	</g>
	<g>
		<g>
			<g>
				<path style="fill:#809E9E;" d="M387.978,325.933c-12.802-8.267-17.4-27.033-9.926-40.513c2.177,3.323,0.763,2.483,4.361,4.169
					c3.597,1.685,8.684,0.894,10.499-2.686c1.463-2.886,0.523-6.778-1.939-8.82c-1.23-1.02-2.063-0.574-4.415-0.51
					c3.932-3.796,7.979-7.67,12.969-9.871c4.991-2.201,7.512-2.381,11.789,0.918c0.958,0.739,2.053,1.033,3.261,1.129
					c1.577,0.125,2.538,0.132,3.386-1.379c1.045-1.863-3.94-2.56-5.757-3.637c5.928-2.964,22.511-5.759,29.084-6.357
					c1.153-0.105,3.851-0.048,4.862,0.504c1.239,0.676,1.199,2.435,1.73,3.746c3.173,7.845,2.696,19.61-1.385,27.11
					c-1.819-0.783-2.317-4.997-4.263-4.566c-1.946,0.431-6.456,1.898-6.029,3.838c0.407,1.848,5.944,3.022,6.893,4.652
					c0.838,1.439,0.747,3.233,0.532,4.897c-0.927,7.177-3.727,14.124-8.046,19.963c-2.909-2.762-6.004-5.628-9.914-6.571
					c-3.909-0.943-6.969-0.239-9.16,3.168c-1.605,2.495-3.194,7.77-0.734,9.513c2.461,1.743,8.894,2.24,11.912,2.482
					c-2.136,8.353-10.35,10.213-18.897,9.53C400.245,335.957,393.27,332.639,387.978,325.933"/>
			</g>
			<path style="fill:none;stroke:#6C8585;stroke-width:0.4858;stroke-miterlimit:10;" d="M383.24,398.248
				c1.141-71.571-2.766-95.846,59.083-135.24"/>
		</g>
		<g>
			<path style="fill:none;stroke:#6C8585;stroke-width:0.4858;stroke-miterlimit:10;" d="M381.259,432.787
				c3.811-84.293-6.277-192.994-23.796-246.294"/>
			<g>
				<path style="fill:#6C8585;" d="M349.894,159.924c0,0-9.802,9.927,7.624,26.568C357.518,186.492,363.508,160.579,349.894,159.924
					z"/>
				<path style="fill:#6C8585;" d="M343.474,187.363c0,0-3.942,13.382,19.282,19.804
					C362.756,207.166,355.779,181.501,343.474,187.363z"/>
				<path style="fill:#6C8585;" d="M347.708,209.742c-0.185,3.812,1.375,13.08,19.522,18.098c0,0-6.391-23.508-17.726-20.389
					C348.472,207.735,347.759,208.674,347.708,209.742z"/>
				<path style="fill:#6C8585;" d="M347.586,232.722c0.556,3.776,3.881,12.566,22.656,13.976c0,0-10.821-21.826-21.338-16.572
					C347.947,230.605,347.43,231.663,347.586,232.722z"/>
				<path style="fill:#6C8585;" d="M350.254,252.492c0.556,3.776,3.881,12.566,22.656,13.976c0,0-10.821-21.826-21.338-16.572
					C350.615,250.374,350.098,251.433,350.254,252.492z"/>
				<path style="fill:#6C8585;" d="M353.016,270.995c0.556,3.776,3.881,12.566,22.656,13.976c0,0-10.821-21.826-21.338-16.572
					C353.377,268.878,352.86,269.937,353.016,270.995z"/>
				<path style="fill:#6C8585;" d="M355.511,288.512c0.26,3.808,2.888,12.831,21.496,15.702c0,0-9.084-22.604-19.979-18.187
					C356.036,286.43,355.438,287.444,355.511,288.512z"/>
				<path style="fill:#6C8585;" d="M374.32,180.779c0,0,8.455,11.097-10.952,25.378C363.368,206.157,360.734,179.691,374.32,180.779
					z"/>
				<path style="fill:#6C8585;" d="M379.22,202.092c1.532,3.495,3.379,12.71-11.785,23.87c0,0-2.412-24.242,9.29-25.37
					C377.791,200.489,378.79,201.111,379.22,202.092z"/>
				<path style="fill:#6C8585;" d="M387.16,223.668c0.827,3.726,0.855,13.124-16.183,21.137c0,0,2.326-24.25,14.025-23.092
					C386.068,221.819,386.929,222.623,387.16,223.668z"/>
				<path style="fill:#6C8585;" d="M389.807,245.331c0.827,3.726,0.855,13.124-16.183,21.137c0,0,2.326-24.25,14.025-23.091
					C388.715,243.482,389.575,244.286,389.807,245.331z"/>
				<path style="fill:#6C8585;" d="M392.335,264.318c0.827,3.726,0.855,13.124-16.183,21.137c0,0,2.326-24.25,14.026-23.092
					C391.243,262.469,392.103,263.274,392.335,264.318z"/>
				<path style="fill:#6C8585;" d="M392.099,281.879c1.115,3.65,1.877,13.017-14.483,22.335c0,0,0.426-24.357,12.18-24.116
					C390.866,280.121,391.787,280.855,392.099,281.879z"/>
			</g>
		</g>
		<path style="fill:#FEA589;" d="M395.037,440.039h-19.541c-4.523,0-8.19-3.667-8.19-8.19l7.215-67.834
			c0-4.523-3.548-8.186,0.975-8.186h19.541c4.523,0,0.964,3.663,0.964,8.186l7.226,67.834
			C403.227,436.372,399.56,440.039,395.037,440.039z"/>
		<g>
			<g style="opacity:0.84;">
				<g>
					<path style="fill:#363039;" d="M375.952,362.052c6.363,0.222,12.732,0.122,19.085-0.297c0.31-0.021,0.313-0.507,0-0.486
						c-6.353,0.419-12.722,0.518-19.085,0.297C375.639,361.555,375.639,362.041,375.952,362.052L375.952,362.052z"/>
				</g>
			</g>
			<g style="opacity:0.84;">
				<g>
					<path style="fill:#363039;" d="M376.705,363.447c6.016,0.483,12.063,0.434,18.07-0.147c0.308-0.03,0.311-0.516,0-0.486
						c-6.007,0.581-12.054,0.631-18.07,0.147C376.393,362.936,376.395,363.422,376.705,363.447L376.705,363.447z"/>
				</g>
			</g>
			<g style="opacity:0.84;">
				<g>
					<path style="fill:#363039;" d="M368.311,430.3c8.677,0.299,17.352,0.637,26.026,1.015c2.449,0.107,4.897,0.217,7.345,0.33
						c0.313,0.014,0.312-0.471,0-0.486c-8.673-0.4-17.348-0.761-26.024-1.082c-2.449-0.091-4.899-0.178-7.348-0.262
						C367.998,429.803,367.998,430.289,368.311,430.3L368.311,430.3z"/>
				</g>
			</g>
			<g style="opacity:0.84;">
				<g>
					<path style="fill:#363039;" d="M369.495,422.955c10.525,0.473,21.061,0.682,31.597,0.626c0.313-0.002,0.313-0.487,0-0.486
						c-10.536,0.056-21.072-0.153-31.597-0.626C369.182,422.455,369.183,422.941,369.495,422.955L369.495,422.955z"/>
				</g>
			</g>
			<g style="opacity:0.84;">
				<g>
					<path style="fill:#363039;" d="M391.879,368.573c1.379,12.875,2.759,25.75,4.138,38.625c0.389,3.631,0.778,7.263,1.167,10.894
						c0.033,0.308,0.519,0.311,0.486,0c-1.379-12.875-2.759-25.75-4.138-38.625c-0.389-3.631-0.778-7.263-1.167-10.894
						C392.332,368.265,391.846,368.262,391.879,368.573L391.879,368.573z"/>
				</g>
			</g>
		</g>
	</g>
	<g>
		<g>
			<g>
				<path style="fill:#363039;" d="M131.361,259.893c1.044,0.29,2.071,0.654,3.131,0.883c0.718,0.156,1.789,0.473,2.465,0.041
					c0.628-0.402,1.097-1.324,1.483-1.939c0.522-0.833,0.987-1.701,1.411-2.587c1.713-3.579,2.788-7.419,3.91-11.212
					c0.046-0.155-0.195-0.221-0.241-0.066c-1.04,3.517-2.039,7.068-3.546,10.421c-0.719,1.599-1.553,3.163-2.604,4.57
					c-0.362,0.485-0.701,0.771-1.347,0.748c-0.56-0.019-1.125-0.137-1.67-0.264c-0.988-0.23-1.948-0.565-2.925-0.837
					C131.272,259.609,131.206,259.85,131.361,259.893L131.361,259.893z"/>
			</g>
		</g>
		<g>
			<g>
				<path style="fill:#363039;" d="M190.739,259.554c0.104-4.819-0.841-9.571-2.131-14.193c-0.043-0.155-0.285-0.089-0.241,0.066
					c1.284,4.602,2.225,9.329,2.122,14.126C190.485,259.715,190.735,259.715,190.739,259.554L190.739,259.554z"/>
			</g>
		</g>
		<g>
			<g>
				<g>
					<path style="fill:#6F5E68;" d="M173.002,164.244c4.049,0.098,6.781,3.594,10.401,4.891c2.483,0.89,5.975,0.436,6.97-2.389
						c0.054-0.152-0.188-0.217-0.241-0.066c-0.507,1.44-1.867,2.291-3.319,2.562c-1.696,0.316-3.361-0.235-4.848-1.028
						c-2.913-1.554-5.475-4.135-8.964-4.219C172.841,163.99,172.841,164.24,173.002,164.244L173.002,164.244z"/>
				</g>
			</g>
			<g>
				<g>
					<path style="fill:#6F5E68;" d="M184.205,167.623c1.15,0.54,2.451,0.378,3.434-0.426c0.125-0.102-0.053-0.278-0.177-0.177
						c-0.891,0.729-2.089,0.876-3.131,0.387C184.187,167.339,184.06,167.555,184.205,167.623L184.205,167.623z"/>
				</g>
			</g>
			<g>
				<g>
					<path style="fill:#6F5E68;" d="M188.931,155.189c1.093-0.39,1.433,0.991,1.192,1.767c-0.207,0.669-0.705,1.224-1.19,1.71
						c-0.958,0.96-1.993,1.85-3.047,2.702c-0.125,0.101,0.053,0.277,0.177,0.177c0.828-0.669,1.634-1.365,2.411-2.093
						c0.645-0.604,1.349-1.236,1.736-2.048c0.277-0.582,0.381-1.297,0.06-1.885c-0.285-0.522-0.84-0.773-1.406-0.571
						C188.714,155.001,188.779,155.243,188.931,155.189L188.931,155.189z"/>
				</g>
			</g>
			<g>
				<g>
					<path style="fill:#6F5E68;" d="M186.228,157.986c-0.863,1.506-2.759,2.435-4.397,2.781c-1.74,0.367-3.566,0.146-5.146-0.673
						c-0.143-0.074-0.269,0.142-0.126,0.216c1.642,0.851,3.531,1.08,5.339,0.698c1.701-0.359,3.651-1.335,4.546-2.896
						C186.524,157.972,186.308,157.846,186.228,157.986L186.228,157.986z"/>
				</g>
			</g>
		</g>
		<g>
			<g>
				<path style="fill:#363039;" d="M174.465,219.72c1.083,4.825-3.977,8.546-8.193,9.286c-2.306,0.405-4.818,0.196-7.095-0.294
					c-2.086-0.449-3.825-1.464-5.604-2.601c-1.972-1.261-3.755-2.827-4.094-5.266c-0.022-0.159-0.263-0.091-0.241,0.066
					c0.292,2.102,1.644,3.624,3.32,4.819c1.812,1.292,3.795,2.533,5.967,3.086c4.754,1.211,10.27,0.948,13.902-2.698
					c1.774-1.781,2.85-3.919,2.279-6.464C174.671,219.497,174.43,219.563,174.465,219.72L174.465,219.72z"/>
			</g>
		</g>
		<g>
			<g>
				<path style="fill:#363039;" d="M118.928,249.014c4.565,2.173,9.074,4.462,13.522,6.865c0.141,0.077,0.268-0.139,0.126-0.216
					c-4.448-2.403-8.957-4.692-13.522-6.865C118.909,248.729,118.782,248.945,118.928,249.014L118.928,249.014z"/>
			</g>
		</g>
		<g>
			<g>
				<path style="fill:#363039;" d="M201.419,247.976c-2.027,2.336-4.372,4.362-6.98,6.025c-0.135,0.086-0.01,0.303,0.126,0.216
					c2.625-1.674,4.99-3.712,7.031-6.064C201.701,248.032,201.525,247.855,201.419,247.976L201.419,247.976z"/>
			</g>
		</g>
		<g>
			<g>
				<path style="fill:#363039;" d="M139.182,193.837c-0.262-1.081-0.494-2.196-0.267-3.303c0.166-0.807,0.333-1.753,0.864-2.408
					c1.337-1.645,3.789-0.889,4.942,0.541c0.101,0.125,0.277-0.053,0.177-0.177c-1.229-1.525-3.429-2.112-5.021-0.813
					c-0.761,0.621-0.943,1.684-1.154,2.588c-0.287,1.232-0.076,2.425,0.218,3.638C138.979,194.06,139.22,193.994,139.182,193.837
					L139.182,193.837z"/>
			</g>
		</g>
		<g style="opacity:0.84;">
			<g>
				<path style="fill:#363039;" d="M186.27,340.483c-4.735-5.256-7.696-12.035-13.337-16.477c-0.125-0.099-0.303,0.077-0.177,0.177
					c5.64,4.441,8.603,11.221,13.337,16.477C186.201,340.779,186.377,340.602,186.27,340.483L186.27,340.483z"/>
			</g>
		</g>
		<g style="opacity:0.84;">
			<g>
				<path style="fill:#363039;" d="M172.935,323.963c1.165-0.591,2.355-1.126,3.57-1.604c0.148-0.058,0.084-0.3-0.066-0.241
					c-1.235,0.487-2.445,1.029-3.63,1.629C172.665,323.82,172.791,324.036,172.935,323.963L172.935,323.963z"/>
			</g>
		</g>
		<g>
			<g>
				<path style="fill:none;stroke:#363039;stroke-width:0.3;stroke-miterlimit:10;" d="M143.64,325.299
					c0.02,0.39,0.237,0.84,0.619,1.343"/>
				<path style="fill:none;stroke:#363039;stroke-width:0.3;stroke-miterlimit:10;stroke-dasharray:2.9488,2.9488;" d="
					M146.346,328.718c6.846,5.793,24.501,15.522,27.274,24.084c2.422,7.477,2.847,16.038,2.887,20.447"/>
				<path style="fill:none;stroke:#363039;stroke-width:0.3;stroke-miterlimit:10;" d="M176.506,374.724
					c-0.009,0.954-0.034,1.496-0.034,1.496"/>
			</g>
		</g>
		<g>
			<g>
				<path style="fill:#363039;" d="M184.106,375.517c4.82-0.298,9.63-0.738,14.424-1.32c0.158-0.019,0.16-0.269,0-0.25
					c-4.794,0.582-9.604,1.022-14.424,1.32C183.946,375.277,183.945,375.527,184.106,375.517L184.106,375.517z"/>
			</g>
		</g>
		<g>
			<g>
				<path style="fill:#363039;" d="M224.987,368.077c4.924-1.608,9.9-3.055,14.918-4.338c0.156-0.04,0.09-0.281-0.066-0.241
					c-5.019,1.283-9.994,2.73-14.918,4.338C224.768,367.886,224.833,368.128,224.987,368.077L224.987,368.077z"/>
			</g>
		</g>
		<g>
			<g>
				<path style="fill:#363039;" d="M188.322,279.619c4.889-0.388,9.777-0.776,14.666-1.164c1.139-0.09,2.28-0.21,3.422-0.257
					c1.138-0.048,2.386,0.002,3.384,0.619c0.888,0.549,1.623,1.638,1.43,2.719c-0.053,0.298-0.306,0.584-0.648,0.578
					c-0.195-0.003-0.6-0.414-0.758-0.527c-0.527-0.375-1.054-0.75-1.582-1.125c-0.131-0.093-0.256,0.123-0.126,0.216
					c0.461,0.328,0.923,0.656,1.384,0.985c0.343,0.244,0.748,0.663,1.165,0.758c0.59,0.134,0.778-0.513,0.83-0.981
					c0.155-1.405-0.953-2.664-2.196-3.142c-1.879-0.721-4.114-0.267-6.058-0.112c-2.342,0.186-4.683,0.372-7.025,0.558
					c-2.629,0.209-5.258,0.417-7.887,0.626C188.163,279.381,188.161,279.631,188.322,279.619L188.322,279.619z"/>
			</g>
		</g>
		<g>
			<g>
				<path style="fill:#363039;" d="M204.546,282.015c0.857,0.067,1.674,0.37,2.342,0.917c0.271,0.222,0.572,0.501,0.737,0.815
					c0.343,0.652-0.088,0.842-0.574,1.07c-0.146,0.068-0.019,0.284,0.126,0.216c0.325-0.152,0.712-0.228,0.823-0.615
					c0.126-0.438-0.192-0.893-0.46-1.2c-0.76-0.873-1.852-1.363-2.995-1.452C204.385,281.752,204.386,282.003,204.546,282.015
					L204.546,282.015z"/>
			</g>
		</g>
		<g>
			<g>
				<path style="fill:#363039;" d="M207.243,283.214c0.161,0,0.161-0.25,0-0.25C207.082,282.964,207.082,283.214,207.243,283.214
					L207.243,283.214z"/>
			</g>
		</g>
		<g>
			<g>
				<path style="fill:#363039;" d="M207.243,283.214c0.161,0,0.161-0.25,0-0.25C207.082,282.964,207.082,283.214,207.243,283.214
					L207.243,283.214z"/>
			</g>
		</g>
		<g>
			<g>
				<path style="fill:#363039;" d="M207.334,283.293c0.567,0.419,1.198,0.728,1.889,0.881c0.336,0.074,0.972,0.266,1.253-0.016
					c0.274-0.276,0.154-1.118,0.111-1.457c-0.048-0.379-0.161-0.708-0.493-0.918c-0.136-0.086-0.262,0.13-0.126,0.216
					c0.39,0.247,0.392,0.767,0.394,1.177c0.002,0.376,0.06,0.746-0.389,0.853c-0.339,0.081-0.95-0.15-1.278-0.269
					c-0.448-0.163-0.852-0.4-1.234-0.682C207.33,282.981,207.205,283.198,207.334,283.293L207.334,283.293z"/>
			</g>
		</g>
		<g>
			<g>
				<path style="fill:#363039;" d="M207.081,284.804c-1.673,0.4-3.218-0.443-4.831-0.736c-0.532-0.097-1.077-0.142-1.615-0.064
					c-0.701,0.102-1.249,0.58-1.933,0.682c-0.159,0.024-0.091,0.265,0.066,0.241c0.654-0.098,1.172-0.556,1.832-0.668
					c0.804-0.136,1.632,0.032,2.408,0.242c1.369,0.369,2.707,0.887,4.138,0.544C207.304,285.008,207.237,284.767,207.081,284.804
					L207.081,284.804z"/>
			</g>
		</g>
	</g>
</g>
</svg>
