<svg id="visual" viewBox="0 0 900 600" width="900" height="600" xmlns="http://www.w3.org/2000/svg" xmlns:xlink="http://www.w3.org/1999/xlink" version="1.1"><rect x="0" y="0" width="900" height="600" fill="#001220"></rect><path d="M0 376L21.5 383.2C43 390.3 86 404.7 128.8 406.2C171.7 407.7 214.3 396.3 257.2 385.2C300 374 343 363 385.8 373.7C428.7 384.3 471.3 416.7 514.2 418C557 419.3 600 389.7 642.8 375.3C685.7 361 728.3 362 771.2 372.3C814 382.7 857 402.3 878.5 412.2L900 422L900 601L878.5 601C857 601 814 601 771.2 601C728.3 601 685.7 601 642.8 601C600 601 557 601 514.2 601C471.3 601 428.7 601 385.8 601C343 601 300 601 257.2 601C214.3 601 171.7 601 128.8 601C86 601 43 601 21.5 601L0 601Z" fill="#c62368"></path><path d="M0 410L21.5 419.5C43 429 86 448 128.8 451.7C171.7 455.3 214.3 443.7 257.2 443.7C300 443.7 343 455.3 385.8 454.7C428.7 454 471.3 441 514.2 440.7C557 440.3 600 452.7 642.8 448.7C685.7 444.7 728.3 424.3 771.2 416.7C814 409 857 414 878.5 416.5L900 419L900 601L878.5 601C857 601 814 601 771.2 601C728.3 601 685.7 601 642.8 601C600 601 557 601 514.2 601C471.3 601 428.7 601 385.8 601C343 601 300 601 257.2 601C214.3 601 171.7 601 128.8 601C86 601 43 601 21.5 601L0 601Z" fill="#d53867"></path><path d="M0 475L21.5 479.7C43 484.3 86 493.7 128.8 494.8C171.7 496 214.3 489 257.2 488.3C300 487.7 343 493.3 385.8 488.2C428.7 483 471.3 467 514.2 460.5C557 454 600 457 642.8 465.5C685.7 474 728.3 488 771.2 486.5C814 485 857 468 878.5 459.5L900 451L900 601L878.5 601C857 601 814 601 771.2 601C728.3 601 685.7 601 642.8 601C600 601 557 601 514.2 601C471.3 601 428.7 601 385.8 601C343 601 300 601 257.2 601C214.3 601 171.7 601 128.8 601C86 601 43 601 21.5 601L0 601Z" fill="#e34c67"></path><path d="M0 520L21.5 516.3C43 512.7 86 505.3 128.8 500.5C171.7 495.7 214.3 493.3 257.2 499.5C300 505.7 343 520.3 385.8 522.5C428.7 524.7 471.3 514.3 514.2 508.3C557 502.3 600 500.7 642.8 506.5C685.7 512.3 728.3 525.7 771.2 532C814 538.3 857 537.7 878.5 537.3L900 537L900 601L878.5 601C857 601 814 601 771.2 601C728.3 601 685.7 601 642.8 601C600 601 557 601 514.2 601C471.3 601 428.7 601 385.8 601C343 601 300 601 257.2 601C214.3 601 171.7 601 128.8 601C86 601 43 601 21.5 601L0 601Z" fill="#ef5f67"></path><path d="M0 552L21.5 552.2C43 552.3 86 552.7 128.8 550.3C171.7 548 214.3 543 257.2 543.2C300 543.3 343 548.7 385.8 548C428.7 547.3 471.3 540.7 514.2 538C557 535.3 600 536.7 642.8 543C685.7 549.3 728.3 560.7 771.2 560.2C814 559.7 857 547.3 878.5 541.2L900 535L900 601L878.5 601C857 601 814 601 771.2 601C728.3 601 685.7 601 642.8 601C600 601 557 601 514.2 601C471.3 601 428.7 601 385.8 601C343 601 300 601 257.2 601C214.3 601 171.7 601 128.8 601C86 601 43 601 21.5 601L0 601Z" fill="#fa7268"></path></svg>