<svg id="visual" viewBox="0 0 900 600" width="900" height="600" xmlns="http://www.w3.org/2000/svg" xmlns:xlink="http://www.w3.org/1999/xlink" version="1.1"><path d="M0 61L13.7 60C27.3 59 54.7 57 82 66C109.3 75 136.7 95 163.8 100C191 105 218 95 245.2 85C272.3 75 299.7 65 327 67C354.3 69 381.7 83 409 81C436.3 79 463.7 61 491 56C518.3 51 545.7 59 573 63C600.3 67 627.7 67 654.8 78C682 89 709 111 736.2 116C763.3 121 790.7 109 818 107C845.3 105 872.7 113 886.3 117L900 121L900 0L886.3 0C872.7 0 845.3 0 818 0C790.7 0 763.3 0 736.2 0C709 0 682 0 654.8 0C627.7 0 600.3 0 573 0C545.7 0 518.3 0 491 0C463.7 0 436.3 0 409 0C381.7 0 354.3 0 327 0C299.7 0 272.3 0 245.2 0C218 0 191 0 163.8 0C136.7 0 109.3 0 82 0C54.7 0 27.3 0 13.7 0L0 0Z" fill="#6198ff"></path><path d="M0 235L13.7 237C27.3 239 54.7 243 82 251C109.3 259 136.7 271 163.8 261C191 251 218 219 245.2 198C272.3 177 299.7 167 327 180C354.3 193 381.7 229 409 251C436.3 273 463.7 281 491 282C518.3 283 545.7 277 573 260C600.3 243 627.7 215 654.8 228C682 241 709 295 736.2 318C763.3 341 790.7 333 818 314C845.3 295 872.7 265 886.3 250L900 235L900 119L886.3 115C872.7 111 845.3 103 818 105C790.7 107 763.3 119 736.2 114C709 109 682 87 654.8 76C627.7 65 600.3 65 573 61C545.7 57 518.3 49 491 54C463.7 59 436.3 77 409 79C381.7 81 354.3 67 327 65C299.7 63 272.3 73 245.2 83C218 93 191 103 163.8 98C136.7 93 109.3 73 82 64C54.7 55 27.3 57 13.7 58L0 59Z" fill="#3c80ff"></path><path d="M0 301L13.7 302C27.3 303 54.7 305 82 324C109.3 343 136.7 379 163.8 383C191 387 218 359 245.2 340C272.3 321 299.7 311 327 318C354.3 325 381.7 349 409 366C436.3 383 463.7 393 491 391C518.3 389 545.7 375 573 348C600.3 321 627.7 281 654.8 300C682 319 709 397 736.2 428C763.3 459 790.7 443 818 415C845.3 387 872.7 347 886.3 327L900 307L900 233L886.3 248C872.7 263 845.3 293 818 312C790.7 331 763.3 339 736.2 316C709 293 682 239 654.8 226C627.7 213 600.3 241 573 258C545.7 275 518.3 281 491 280C463.7 279 436.3 271 409 249C381.7 227 354.3 191 327 178C299.7 165 272.3 175 245.2 196C218 217 191 249 163.8 259C136.7 269 109.3 257 82 249C54.7 241 27.3 237 13.7 235L0 233Z" fill="#0066ff"></path><path d="M0 391L13.7 392C27.3 393 54.7 395 82 411C109.3 427 136.7 457 163.8 453C191 449 218 411 245.2 394C272.3 377 299.7 381 327 387C354.3 393 381.7 401 409 412C436.3 423 463.7 437 491 446C518.3 455 545.7 459 573 440C600.3 421 627.7 379 654.8 389C682 399 709 461 736.2 483C763.3 505 790.7 487 818 467C845.3 447 872.7 425 886.3 414L900 403L900 305L886.3 325C872.7 345 845.3 385 818 413C790.7 441 763.3 457 736.2 426C709 395 682 317 654.8 298C627.7 279 600.3 319 573 346C545.7 373 518.3 387 491 389C463.7 391 436.3 381 409 364C381.7 347 354.3 323 327 316C299.7 309 272.3 319 245.2 338C218 357 191 385 163.8 381C136.7 377 109.3 341 82 322C54.7 303 27.3 301 13.7 300L0 299Z" fill="#0059dd"></path><path d="M0 601L13.7 601C27.3 601 54.7 601 82 601C109.3 601 136.7 601 163.8 601C191 601 218 601 245.2 601C272.3 601 299.7 601 327 601C354.3 601 381.7 601 409 601C436.3 601 463.7 601 491 601C518.3 601 545.7 601 573 601C600.3 601 627.7 601 654.8 601C682 601 709 601 736.2 601C763.3 601 790.7 601 818 601C845.3 601 872.7 601 886.3 601L900 601L900 401L886.3 412C872.7 423 845.3 445 818 465C790.7 485 763.3 503 736.2 481C709 459 682 397 654.8 387C627.7 377 600.3 419 573 438C545.7 457 518.3 453 491 444C463.7 435 436.3 421 409 410C381.7 399 354.3 391 327 385C299.7 379 272.3 375 245.2 392C218 409 191 447 163.8 451C136.7 455 109.3 425 82 409C54.7 393 27.3 391 13.7 390L0 389Z" fill="#004cbb"></path></svg>