<svg id="visual" viewBox="0 0 900 600" width="900" height="600" xmlns="http://www.w3.org/2000/svg" xmlns:xlink="http://www.w3.org/1999/xlink" version="1.1"><path d="M0 121L82 121L82 115L164 115L164 85L245 85L245 61L327 61L327 103L409 103L409 67L491 67L491 121L573 121L573 55L655 55L655 79L736 79L736 85L818 85L818 61L900 61L900 85L900 0L900 0L818 0L818 0L736 0L736 0L655 0L655 0L573 0L573 0L491 0L491 0L409 0L409 0L327 0L327 0L245 0L245 0L164 0L164 0L82 0L82 0L0 0Z" fill="#fa7268"></path><path d="M0 199L82 199L82 307L164 307L164 295L245 295L245 265L327 265L327 217L409 217L409 277L491 277L491 241L573 241L573 205L655 205L655 301L736 301L736 313L818 313L818 319L900 319L900 295L900 83L900 59L818 59L818 83L736 83L736 77L655 77L655 53L573 53L573 119L491 119L491 65L409 65L409 101L327 101L327 59L245 59L245 83L164 83L164 113L82 113L82 119L0 119Z" fill="#ea5e66"></path><path d="M0 331L82 331L82 385L164 385L164 415L245 415L245 433L327 433L327 283L409 283L409 451L491 451L491 319L573 319L573 259L655 259L655 379L736 379L736 397L818 397L818 451L900 451L900 367L900 293L900 317L818 317L818 311L736 311L736 299L655 299L655 203L573 203L573 239L491 239L491 275L409 275L409 215L327 215L327 263L245 263L245 293L164 293L164 305L82 305L82 197L0 197Z" fill="#d84a64"></path><path d="M0 523L82 523L82 523L164 523L164 559L245 559L245 553L327 553L327 529L409 529L409 559L491 559L491 553L573 553L573 511L655 511L655 517L736 517L736 547L818 547L818 565L900 565L900 529L900 365L900 449L818 449L818 395L736 395L736 377L655 377L655 257L573 257L573 317L491 317L491 449L409 449L409 281L327 281L327 431L245 431L245 413L164 413L164 383L82 383L82 329L0 329Z" fill="#c53762"></path><path d="M0 601L82 601L82 601L164 601L164 601L245 601L245 601L327 601L327 601L409 601L409 601L491 601L491 601L573 601L573 601L655 601L655 601L736 601L736 601L818 601L818 601L900 601L900 601L900 527L900 563L818 563L818 545L736 545L736 515L655 515L655 509L573 509L573 551L491 551L491 557L409 557L409 527L327 527L327 551L245 551L245 557L164 557L164 521L82 521L82 521L0 521Z" fill="#b0235f"></path></svg>