<svg id="visual" viewBox="0 0 900 600" width="900" height="600" xmlns="http://www.w3.org/2000/svg" xmlns:xlink="http://www.w3.org/1999/xlink" version="1.1"><rect x="0" y="0" width="900" height="600" fill="#002233"></rect><path d="M0 402L21.5 399.2C43 396.3 86 390.7 128.8 401.8C171.7 413 214.3 441 257.2 456.2C300 471.3 343 473.7 385.8 470.5C428.7 467.3 471.3 458.7 514.2 448.2C557 437.7 600 425.3 642.8 416.5C685.7 407.7 728.3 402.3 771.2 418.3C814 434.3 857 471.7 878.5 490.3L900 509L900 601L878.5 601C857 601 814 601 771.2 601C728.3 601 685.7 601 642.8 601C600 601 557 601 514.2 601C471.3 601 428.7 601 385.8 601C343 601 300 601 257.2 601C214.3 601 171.7 601 128.8 601C86 601 43 601 21.5 601L0 601Z" fill="#0066FF" stroke-linecap="round" stroke-linejoin="miter"></path></svg>