<svg id="visual" viewBox="0 0 900 600" width="900" height="600" xmlns="http://www.w3.org/2000/svg" xmlns:xlink="http://www.w3.org/1999/xlink" version="1.1"><rect x="0" y="0" width="900" height="600" fill="#00aaff"></rect><path d="M0 512L12.5 508.7C25 505.3 50 498.7 75 490.7C100 482.7 125 473.3 150 461.5C175 449.7 200 435.3 225 442.7C250 450 275 479 300 496.3C325 513.7 350 519.3 375 505.7C400 492 425 459 450 458.2C475 457.3 500 488.7 525 502.7C550 516.7 575 513.3 600 503.5C625 493.7 650 477.3 675 465.2C700 453 725 445 750 450C775 455 800 473 825 476.7C850 480.3 875 469.7 887.5 464.3L900 459L900 601L887.5 601C875 601 850 601 825 601C800 601 775 601 750 601C725 601 700 601 675 601C650 601 625 601 600 601C575 601 550 601 525 601C500 601 475 601 450 601C425 601 400 601 375 601C350 601 325 601 300 601C275 601 250 601 225 601C200 601 175 601 150 601C125 601 100 601 75 601C50 601 25 601 12.5 601L0 601Z" fill="#002151" stroke-linecap="round" stroke-linejoin="miter"></path></svg>